<svg id="Layer_1" xmlns="http://www.w3.org/2000/svg" width="20" height="20" viewBox="0 0 20 20"><style>.st0{fill:#FFFFFF;}</style><title>Shape</title><path class="st0" d="M17.6 10.2c.3-.5.4-1.1.4-1.7C18 6.6 16.4 5 14.5 5c-1 0-1.9.4-2.5 1.1V6c0-2.8-2.2-5-5-5S2 3.2 2 6c0 .9.3 1.8.7 2.5C1.1 9.8 0 11.7 0 13.9V18c0 .6.4 1 1 1h18c.6 0 1-.4 1-1v-3.3c0-1.9-1-3.5-2.4-4.5zM14.5 7c.8 0 1.5.7 1.5 1.5 0 .3-.1.6-.3.8-.1.1-.1.2-.2.2l-.1.1c-.1 0-.1.1-.2.1 0 0-.1 0-.1.1-.1 0-.1.1-.2.1H14c-.1 0-.2-.1-.3-.1-.2-.1-.4-.3-.5-.5-.1-.3-.2-.5-.2-.8 0-.8.7-1.5 1.5-1.5zM4 6c0-1.7 1.3-3 3-3s3 1.3 3 3c0 .6-.2 1.1-.5 1.6-.3.4-.6.7-1 1l-.1.1c-.2 0-.3.1-.5.2-.1 0-.1 0-.2.1H7s-.5 0-.7-.1c-.1 0-.1 0-.2-.1-.2 0-.3-.1-.5-.2 0 0-.1 0-.1-.1-.4-.2-.8-.6-1-1C4.2 7.1 4 6.6 4 6zm-2 7.9c0-1.6.8-3 2.1-3.9.8.6 1.8 1 2.9 1s2.1-.4 2.9-1c1.2.9 2.1 2.3 2.1 3.9V17H2v-3.1zM18 17h-4v-3.1c0-.7-.1-1.4-.3-2 .3.1.5.1.8.1.6 0 1.1-.2 1.6-.4 1.1.6 1.9 1.8 1.9 3.1V17z"/></svg>
