<?xml version="1.0" encoding="utf-8"?>
<!-- Generator: Adobe Illustrator 23.0.1, SVG Export Plug-In . SVG Version: 6.00 Build 0)  -->
<svg version="1.1" id="Layer_1" xmlns="http://www.w3.org/2000/svg" xmlns:xlink="http://www.w3.org/1999/xlink" x="0px" y="0px"
	 viewBox="0 0 332.9 85.3" style="enable-background:new 0 0 332.9 85.3;" xml:space="preserve">
<style type="text/css">
	.st0{fill:#392BB6;}
	.st1{fill:#F04F88;}
	.st2{fill:none;}
	.st3{fill:#FFFFFF;}
	.st4{font-family:'BommerSlab-Bold';}
	.st5{font-size:50.321px;}
</style>
<polyline class="st0" points="509.3,175.5 -84,175.5 -84,-80 509.3,-80 "/>
<g>
	<g>
		<path class="st1" d="M72.8,8.9c2.2,0,4,1.8,4,4v60.9c0,2.2-1.8,4-4,4H11.9c-2.2,0-4-1.8-4-4V12.9c0-2.2,1.8-4,4-4H72.8 M72.8,4.9
			H11.9c-4.4,0-8,3.6-8,8v60.9c0,4.4,3.6,8,8,8h60.9c4.4,0,8-3.6,8-8V12.9C80.8,8.5,77.2,4.9,72.8,4.9L72.8,4.9z"/>
	</g>
</g>
<g>
	<polygon class="st1" points="42.4,26 32.3,16 19.9,16 42.4,38.4 42.4,38.4 42.4,38.4 64.8,16 52.4,16 	"/>
	<polygon class="st1" points="14.9,21 14.9,33.3 25,43.4 14.9,53.5 14.9,65.9 37.3,43.4 37.3,43.4 37.3,43.4 	"/>
	<polygon class="st1" points="47.4,43.4 47.4,43.4 69.8,65.9 69.8,53.5 59.7,43.4 69.8,33.3 69.8,21 47.4,43.4 	"/>
	<polygon class="st1" points="42.4,48.4 42.4,48.4 19.9,70.9 32.3,70.9 42.4,60.8 52.4,70.9 64.8,70.9 42.4,48.4 	"/>
</g>
<polyline class="st2" points="509.3,175.5 -84,175.5 -84,-80 509.3,-80 "/>
<text transform="matrix(1 0 0 1 104.9937 62.248)" class="st3 st4 st5">Jolie</text>
</svg>
