<?xml version="1.0" encoding="UTF-8"?>
<svg width="75px" height="16px" viewBox="0 0 75 16" version="1.1" xmlns="http://www.w3.org/2000/svg" xmlns:xlink="http://www.w3.org/1999/xlink">
    <g id="sandbox" fill="#FFFFFF">
        <path d="M8.62170661,10.1590294 C8.62170661,11.3748177 8.20884991,12.3211831 7.3831365,12.9927099 C6.55742309,13.6642366 5.39479652,14 3.89525678,14 C3.27113895,14 2.72296467,13.9580296 2.25073392,13.8740887 C1.77574159,13.7901479 1.33112668,13.6506978 0.912746808,13.4543845 L0.912746808,11.9827119 C1.86549305,12.4674026 2.86518621,12.709748 3.91320707,12.709748 C4.86457252,12.709748 5.62124635,12.4917725 6.18046697,12.0571756 C6.73968759,11.6225786 7.0186075,11.0228077 7.0186075,10.2632785 C7.0186075,9.81243491 6.86395884,9.4171006 6.55466151,9.07321391 C6.24536418,8.73068111 5.67095485,8.32451573 4.83005273,7.85877942 C3.9422037,7.36867319 3.32637062,6.87721308 2.9825535,6.38846074 C2.63735558,5.89835451 2.46613742,5.3188919 2.46613742,4.6500729 C2.46613742,3.57102687 2.85413987,2.69370964 3.63014478,2.01541346 C4.40614969,1.33847115 5.42793552,1 6.69274067,1 C7.27405396,1 7.81670508,1.05415538 8.32069403,1.16382004 C8.82468298,1.27348469 9.35352619,1.46167465 9.91274681,1.72568215 L9.33005273,3.02405749 C8.94205028,2.80472818 8.50572011,2.63143095 8.02520462,2.5041658 C7.54192754,2.37690065 7.09869342,2.31326807 6.69274067,2.31326807 C5.90430864,2.31326807 5.27052527,2.51364299 4.79139056,2.91439283 C4.31087507,3.31514268 4.07199811,3.85805041 4.07199811,4.5444699 C4.07199811,4.85586336 4.12170661,5.12257863 4.22112361,5.34461571 C4.32054061,5.56665278 4.48071244,5.77515101 4.69749673,5.97281816 C4.91428102,6.16913143 5.33266089,6.44261612 5.94987476,6.79327223 C6.81425034,7.30097896 7.39832521,7.69902104 7.70209937,7.98739846 C8.00449274,8.27577588 8.23370416,8.59393876 8.38973361,8.94324099 C8.54576307,9.29254322 8.62170661,9.69735472 8.62170661,10.1590294 Z" id="Shape"></path>
        <path d="M15.2649072,4 C15.8065612,4 16.2861936,4.14468789 16.7093177,4.43544164 C17.1324417,4.7261954 17.4604662,5.1437233 17.6961477,5.68940333 L17.7926255,5.68940333 L18.3825183,4.17500344 L19.5016607,4.17500344 L17.4508184,13.8236186 L16.2793023,13.8236186 L16.5080925,11.9840154 L16.4364233,11.9840154 C15.3861936,13.3275458 14.2808337,14 13.1175872,14 C12.3016607,14 11.6607725,13.7092462 11.1976791,13.1277387 C10.7332074,12.5462312 10.5016607,11.7511368 10.5016607,10.7424556 C10.5016607,9.52156539 10.7097771,8.38886592 11.1260098,7.34435717 C11.5436209,6.29984842 12.1183529,5.47995039 12.8529624,4.88879702 C13.5861936,4.29626567 14.3897158,4 15.2649072,4 Z M13.5917066,12.7763539 C14.1609256,12.7763539 14.7273881,12.5062698 15.2910941,11.9619678 C15.8548,11.4190437 16.3123804,10.71214 16.6652135,9.84125672 C17.0166683,8.96899545 17.1930849,8.09535621 17.1930849,7.22171696 C17.1930849,6.61816177 17.0290726,6.13586882 16.7010481,5.77759405 C16.3716454,5.41931928 15.9402518,5.24018189 15.4068674,5.24018189 C14.7963008,5.24018189 14.2284601,5.49373019 13.7033452,5.99807083 C13.1782304,6.50241146 12.7647541,7.18588949 12.4670512,8.04850489 C12.1665918,8.9111203 12.0177403,9.82058702 12.0177403,10.7769051 C12.0177403,11.4466033 12.156944,11.94681 12.4325948,12.2789031 C12.7054892,12.6109963 13.0927786,12.7763539 13.5917066,12.7763539 Z" id="Shape"></path>
        <path d="M25.9953329,14 L27.3184505,7.79943899 C27.4374611,7.17812062 27.4976665,6.74754558 27.4976665,6.50911641 C27.4976665,6.13183731 27.391257,5.83169705 27.1784381,5.60308555 C26.9684194,5.37587658 26.6281892,5.26227209 26.1633479,5.26227209 C25.6327007,5.26227209 25.1146546,5.44179523 24.61201,5.80084151 C24.1079652,6.15848527 23.6627256,6.66900421 23.2790915,7.33380084 C22.8954574,7.99719495 22.6042315,8.79943899 22.4068139,9.74333801 L21.5023335,14 L20,14 L22.0931861,4.17952314 L23.3378967,4.17952314 L23.1404792,5.99859748 L23.228687,5.99859748 C23.8013379,5.26928471 24.3543871,4.75315568 24.8892346,4.4516129 C25.422682,4.15007013 25.9757312,4 26.5483821,4 C27.3058494,4 27.9037026,4.20617111 28.3419415,4.62131837 C28.7801805,5.03786816 29,5.61851332 29,6.36465638 C29,6.83730715 28.9313939,7.37447405 28.7941817,7.97755961 L27.5158681,13.9985975 L25.9953329,13.9985975 L25.9953329,14 Z" id="Shape"></path>
        <path d="M35.2432281,3.9265071 C36.3965372,3.9265071 37.2328958,4.4882312 37.7509075,5.61446022 L37.8388718,5.61446022 C37.9394024,4.69679213 38.0734431,3.88479492 38.2409941,3.17985897 L38.9363306,0 L40.4177604,0 L37.4744484,13.822028 L36.233175,13.822028 L36.4300474,11.9658357 L36.3588383,11.9658357 C35.7570511,12.7055318 35.1957553,13.229715 34.6735548,13.5383851 C34.1499581,13.8456649 33.6082099,14 33.0497067,14 C32.223122,14 31.5766545,13.7094051 31.1130969,13.1296057 C30.6495392,12.5484159 30.4177604,11.7433707 30.4177604,10.7130797 C30.4177604,9.4464197 30.6313878,8.28543053 31.060039,7.23150263 C31.4886903,6.17618433 32.0667411,5.3627967 32.7941915,4.78716854 C33.5230382,4.21293078 34.3384529,3.9265071 35.2432281,3.9265071 Z M33.5481709,12.7639289 C34.1066741,12.7639289 34.6833286,12.4886285 35.2781346,11.9338564 C35.8743367,11.3804747 36.3448757,10.672758 36.6925439,9.81070613 C37.0416084,8.95004469 37.2147444,8.07130797 37.2147444,7.17588638 C37.2147444,6.51822425 37.0541748,6.01906843 36.7330354,5.6756381 C36.4118961,5.33220777 35.9455459,5.1597974 35.3325886,5.1597974 C34.7308014,5.1597974 34.1736945,5.40450889 33.6598715,5.89254146 C33.1460485,6.38057404 32.7327562,7.06882511 32.4199944,7.95312345 C32.1072326,8.83742179 31.9508517,9.77038435 31.9508517,10.7464495 C31.9508517,12.0923627 32.482826,12.7639289 33.5481709,12.7639289 Z" id="Shape"></path>
        <path d="M44.6965167,14 C44.1272105,14 43.6268276,13.8498361 43.195368,13.5467276 C42.7639083,13.2450094 42.4385905,12.8334492 42.2221714,12.3120469 L42.1339497,12.3120469 L41.5191541,13.822028 L40.4177604,13.822028 L43.3235652,0 L44.8026585,0 C44.5021531,1.43350879 44.2719494,2.53053928 44.1106689,3.29109147 C43.9493885,4.05303406 43.728834,4.94289403 43.4462486,5.96067137 L43.5261996,5.96067137 C44.0720719,5.26129705 44.6110518,4.74823716 45.1431394,4.4201013 C45.6738486,4.09196544 46.2210993,3.92789751 46.7848916,3.92789751 C47.6133493,3.92789751 48.258471,4.22127321 48.7216354,4.80802463 C49.1861782,5.39338564 49.4177604,6.19982123 49.4177604,7.22316019 C49.4177604,8.46201212 49.2165044,9.60631642 48.8139925,10.6574635 C48.4114807,11.7086106 47.8504453,12.5289502 47.1308864,13.1184825 C46.4113275,13.7080147 45.6007899,14 44.6965167,14 Z M46.3341335,5.1597974 C45.7703411,5.1597974 45.1968996,5.44065945 44.6124303,6.00377396 C44.027961,6.56549806 43.5647967,7.27321482 43.2201803,8.12553382 C42.8769425,8.97785282 42.7060128,9.85241831 42.7060128,10.7464495 C42.7060128,11.39855 42.8686717,11.8977058 43.1939895,12.243917 C43.5193073,12.5901281 43.9907424,12.7625385 44.6069164,12.7625385 C45.1886288,12.7625385 45.7289872,12.5233886 46.232127,12.0436985 C46.7338884,11.5626179 47.1377787,10.8813189 47.443798,9.99563015 C47.7484389,9.1099414 47.9014485,8.17002681 47.9014485,7.17449598 C47.902827,5.832754 47.3790102,5.1597974 46.3341335,5.1597974 Z" id="Shape"></path>
        <path d="M55.3130181,4 C56.3751391,4 57.2117232,4.33217512 57.8267044,4.99930507 C58.4416855,5.66643502 58.7485205,6.58234885 58.7485205,7.74843641 C58.7485205,8.86170952 58.5478976,9.91243919 58.1453407,10.9006254 C57.7427837,11.8902015 57.1972994,12.6532314 56.5115102,13.1911049 C55.8257209,13.7289785 55.0481435,14 54.1827116,14 C53.1114118,14 52.2695826,13.6650452 51.6611578,12.9951355 C51.0527329,12.3280056 50.7485205,11.4120917 50.7485205,10.2515636 C50.7485205,9.12578179 50.9517659,8.0694927 51.3595679,7.0771369 C51.7686811,6.0847811 52.316788,5.32453092 53.0104448,4.79499653 C53.7027903,4.26407227 54.4711889,4 55.3130181,4 Z M57.2903989,7.54273801 C57.2903989,6.86309937 57.1160012,6.30993746 56.7685172,5.88742182 C56.4184107,5.46351633 55.9450456,5.25364837 55.3484221,5.25364837 C54.738686,5.25364837 54.1932017,5.47185546 53.7106578,5.91104934 C53.2268027,6.34746352 52.8530935,6.95760945 52.5882189,7.73453787 C52.3233443,8.514246 52.1895957,9.38012509 52.1895957,10.3321751 C52.1895957,11.1077137 52.3679271,11.7067408 52.7219675,12.1306463 C53.077319,12.5531619 53.5847768,12.7644197 54.2508971,12.7644197 C54.8304743,12.7644197 55.3536672,12.5489924 55.8165421,12.1167477 C56.2807283,11.6831133 56.6413249,11.0701876 56.9009545,10.2738013 C57.1618953,9.47741487 57.2903989,8.56706046 57.2903989,7.54273801 Z" id="Shape"></path>
        <polygon id="Shape" points="63.3585878 10.0411311 60.223307 14 58.4578504 14 62.760176 8.84575835 60.5962509 4 62.1362395 4 63.7116791 7.75892602 66.700902 4 68.4578504 4 64.3370336 8.91716652 66.6186558 14 65.0971017 14"></polygon>
    </g>
</svg>
