<svg id="Layer_1" xmlns="http://www.w3.org/2000/svg" width="20" height="20" viewBox="0 0 20 20"><style>.st0{fill:#FFFFFF;}</style><title>transactions-icon-20x20</title><path class="st0" d="M19.7 18.3l-3.4-3.4c.4-.7.7-1.5.7-2.4C17 10 15 8 12.5 8S8 10 8 12.5s2 4.5 4.5 4.5c.9 0 1.7-.3 2.4-.7l3.4 3.4c.2.2.5.3.7.3s.5-.1.7-.3c.4-.4.4-1 0-1.4zM10 12.5c0-1.4 1.1-2.5 2.5-2.5s2.5 1.1 2.5 2.5-1.1 2.5-2.5 2.5-2.5-1.1-2.5-2.5zM1 6h14c.6 0 1-.4 1-1s-.4-1-1-1H1c-.6 0-1 .4-1 1s.4 1 1 1zM0 9c0 .6.4 1 1 1h5.5c.3-.7.8-1.4 1.3-2H1c-.6 0-1 .4-1 1zM6 12H1c-.6 0-1 .4-1 1s.4 1 1 1h5.2c-.1-.5-.2-1-.2-1.5V12zM1 2h14c.6 0 1-.4 1-1s-.4-1-1-1H1C.4 0 0 .4 0 1s.4 1 1 1z"/></svg>
