<svg id="Layer_1" xmlns="http://www.w3.org/2000/svg" width="20" height="20" viewBox="0 0 20 20"><style>.st0{fill:#FFFFFF;}</style><path class="st0" d="M19 18H2.1c.4-2.2 1.3-4.4 2-4.4.6 0 .9.3 1.5.9.5.6 1.2 1.3 2.2 1.3 1.7 0 1.8-2.1 2-4.3.1-1 .2-2.9.5-3.4.3.2.6 1.1.8 1.6.6 1.4 1.3 3.2 3.1 3.2 1.5 0 2.5-2 3-5.9 1.7-.5 2.8-1.9 2.8-3.5C20 1.6 18.4 0 16.5 0S13 1.6 13 3.5c0 1.5 1 2.8 2.3 3.3-.3 2.1-.7 3.6-1.1 4-.4-.1-.8-1.1-1.2-1.9-.5-1.3-1.1-2.9-2.7-2.9C8.2 6 8 8.8 7.8 11.3c0 .7-.1 1.7-.2 2.3-.1-.1-.3-.3-.4-.5-.6-.7-1.4-1.6-3-1.6-.9 0-1.6.5-2.2 1.2V1c0-.6-.4-1-1-1S0 .4 0 1v18c0 .6.4 1 1 1h18c.6 0 1-.4 1-1s-.4-1-1-1zM16.5 2c.8 0 1.5.7 1.5 1.5S17.3 5 16.5 5 15 4.3 15 3.5 15.7 2 16.5 2z"/></svg>
